<?xml version="1.0" standalone="no"?>
<!DOCTYPE svg PUBLIC "-//W3C//DTD SVG 20010904//EN"
 "http://www.w3.org/TR/2001/REC-SVG-20010904/DTD/svg10.dtd">
<svg version="1.0" xmlns="http://www.w3.org/2000/svg"
 width="1024.000000pt" height="1024.000000pt" viewBox="0 0 1024.000000 1024.000000"
 preserveAspectRatio="xMidYMid meet">
<metadata>
Created by potrace 1.16, written by Peter Selinger 2001-2019
</metadata>
<defs>
  <style>
    .chef-body { fill: #8BC34A; } /* primary green */
    .chef-details { fill: #2E7D32; } /* secondary green */
    .text-miam { fill: #C62828; } /* accent red */
    .utensils { fill: #2E7D32; } /* secondary green */
  </style>
</defs>
<g transform="translate(0.000000,1024.000000) scale(0.100000,-0.100000)"
stroke="none">
<path class="chef-body" d="M4843 9695 c-140 -25 -301 -92 -425 -176 -61 -42 -166 -140 -214
-201 l-29 -37 -55 15 c-149 40 -353 37 -508 -6 -291 -81 -519 -297 -614 -580
-31 -92 -32 -100 -32 -265 0 -159 2 -175 28 -255 100 -304 334 -525 634 -600
l42 -11 1 -217 c0 -119 3 -229 5 -244 4 -24 -6 -38 -71 -99 -59 -56 -84 -90
-116 -153 -56 -113 -62 -168 -56 -500 4 -257 7 -290 30 -386 14 -58 36 -134
50 -170 126 -334 397 -629 736 -804 422 -216 874 -252 1321 -104 505 166 903
569 1019 1028 l28 112 179 -2 178 -1 121 -118 c135 -132 198 -171 276 -171 47
0 49 -1 67 -42 44 -99 131 -158 234 -158 225 0 343 269 188 429 -59 61 -93 75
-180 76 -94 0 -160 -30 -205 -93 -30 -42 -30 -42 -86 -39 l-57 3 -138 131
c-77 71 -149 135 -161 142 -14 7 -89 11 -212 11 l-191 0 0 119 0 119 58 4 c31
2 161 5 288 7 l230 3 19 -42 c35 -78 146 -150 230 -150 83 0 186 65 228 144
30 58 30 174 0 231 -97 182 -343 191 -454 16 l-15 -24 -289 -8 c-160 -4 -291
-7 -292 -6 0 1 -8 41 -16 90 -15 83 -61 203 -93 238 -13 14 6 16 218 22 128 4
395 7 592 7 l359 0 35 -41 c76 -88 207 -115 310 -63 126 63 178 211 118 340
-93 201 -399 186 -471 -23 l-13 -38 -349 -7 c-191 -4 -480 -8 -641 -10 l-292
-3 0 91 0 91 188 6 c103 4 278 7 390 7 l203 0 117 108 c64 60 145 134 178 165
l62 57 43 -20 c97 -44 231 -14 297 66 106 129 67 317 -83 397 -63 34 -164 30
-233 -7 -93 -52 -136 -130 -130 -237 l3 -67 -162 -151 -162 -151 -356 0 -356
0 3 51 3 51 75 19 c297 75 528 309 612 621 31 114 31 306 -1 423 -57 214 -193
399 -384 523 -214 138 -501 183 -747 117 l-55 -14 -29 37 c-194 245 -515 394
-845 391 -58 0 -138 -7 -178 -14z m327 -260 c184 -27 329 -102 450 -231 36
-39 83 -100 104 -138 65 -111 75 -113 234 -51 121 47 188 59 292 52 510 -34
781 -625 462 -1010 -111 -134 -253 -203 -474 -232 -31 -4 -55 -14 -72 -32
l-26 -26 0 -293 0 -294 -47 0 c-27 0 -140 7 -253 16 -440 32 -1250 29 -1650
-7 -58 -5 -142 -12 -187 -15 l-83 -7 0 297 0 298 -28 28 c-21 20 -43 30 -78
35 -182 24 -312 83 -420 190 -125 124 -178 251 -179 425 0 123 12 175 69 285
101 198 311 329 546 342 110 6 219 -16 328 -67 102 -48 113 -43 187 75 132
211 323 331 580 365 93 12 142 11 245 -5z m2565 -1500 c51 -50 16 -148 -53
-148 -59 0 -111 57 -96 107 20 67 102 89 149 41z m236 -758 c62 -47 43 -146
-30 -162 -61 -13 -121 48 -105 109 13 54 93 85 135 53z m-2386 -222 c418 -21
567 -32 598 -44 54 -21 117 -72 142 -115 48 -82 57 -163 52 -441 -4 -226 -7
-259 -30 -346 -56 -214 -148 -372 -311 -534 -161 -160 -330 -264 -545 -335
-164 -54 -286 -74 -461 -73 -240 1 -430 44 -637 145 -286 138 -537 403 -639
673 -52 140 -64 222 -71 480 -6 249 1 323 34 393 24 50 86 110 139 133 47 21
222 40 549 59 105 6 213 12 240 13 155 10 690 5 940 -8z m1924 -361 c42 -35
43 -84 2 -125 -33 -32 -58 -36 -100 -14 -39 20 -55 66 -37 110 25 60 84 73
135 29z m229 -731 c31 -33 30 -86 -3 -118 -53 -54 -150 -15 -148 59 2 85 94
121 151 59z"/>
<path class="chef-details" d="M5768 8255 c-14 -8 -36 -30 -48 -49 -39 -65 -162 -169 -256 -217
-164 -86 -201 -94 -419 -94 -165 1 -201 4 -275 23 -120 32 -275 110 -369 186
-108 87 -115 91 -162 77 -78 -24 -102 -102 -53 -174 14 -21 62 -67 107 -103
332 -262 824 -319 1203 -140 159 76 293 181 381 300 33 45 43 67 43 97 0 77
-87 131 -152 94z"/>
<path class="chef-details" d="M4323 6586 c-125 -40 -243 -179 -243 -285 0 -53 43 -94 100 -94 49 0
64 13 99 85 19 38 37 59 66 75 55 31 130 31 176 0 31 -21 43 -38 79 -118 30
-67 147 -63 178 6 18 39 15 64 -18 133 -35 74 -106 149 -175 182 -60 30 -194
38 -262 16z"/>
<path class="chef-details" d="M5533 6586 c-90 -28 -176 -106 -219 -199 -39 -84 -28 -143 31 -172
41 -19 49 -19 85 0 17 9 33 28 40 50 14 44 53 91 91 110 37 20 113 19 156 -1
37 -18 83 -77 83 -107 0 -10 11 -29 25 -42 40 -41 110 -29 152 25 36 45 -7
162 -91 246 -75 75 -144 104 -244 103 -37 0 -86 -6 -109 -13z"/>
<path class="chef-details" d="M4493 5881 c-40 -25 -50 -67 -27 -116 47 -100 263 -237 426 -269 236
-48 475 18 646 179 60 55 82 91 82 130 0 56 -62 104 -117 90 -15 -3 -46 -24
-69 -45 -147 -135 -328 -191 -507 -156 -107 21 -193 65 -277 141 -77 72 -102
79 -157 46z"/>
<path class="utensils" d="M3155 5318 c-33 -17 -45 -39 -45 -79 0 -25 8 -46 23 -62 12 -14 166
-118 342 -232 176 -114 330 -217 343 -228 12 -11 22 -31 22 -44 0 -29 -42 -57
-72 -49 -13 3 -178 109 -368 236 -266 178 -352 230 -376 230 -67 0 -120 -81
-90 -138 20 -39 38 -52 390 -292 164 -112 303 -213 308 -226 22 -48 -36 -89
-90 -64 -15 6 -119 76 -232 154 -452 313 -426 297 -467 294 -30 -2 -42 -10
-60 -37 -53 -79 -47 -87 333 -378 186 -142 359 -273 386 -290 84 -58 141 -75
263 -80 104 -4 115 -2 195 27 158 59 122 72 460 -175 162 -119 296 -219 297
-223 2 -4 -16 -18 -40 -31 -123 -70 -596 -367 -620 -390 -93 -86 -87 -212 15
-294 43 -34 124 -47 177 -29 16 6 175 116 353 244 178 129 344 249 369 267
l46 33 344 -253 c189 -139 364 -264 388 -277 145 -82 333 53 291 209 -20 73
-76 117 -405 319 -170 104 -316 193 -324 197 -10 6 70 69 270 215 156 114 318
232 359 262 41 31 84 56 96 56 11 0 52 -11 91 -25 111 -38 203 -49 292 -35
264 42 521 247 660 526 87 176 107 320 59 425 -34 76 -79 123 -146 156 -53 26
-65 28 -177 27 -80 0 -142 -6 -185 -18 -330 -88 -605 -310 -701 -565 -13 -35
-24 -96 -29 -162 -4 -58 -13 -114 -20 -125 -6 -10 -73 -57 -148 -103 -76 -47
-266 -167 -424 -268 l-288 -184 -302 189 c-167 103 -331 206 -366 227 -92 56
-102 72 -102 165 0 159 -41 269 -138 367 -55 56 -216 156 -771 482 -106 62
-145 72 -186 49z"/>
<path class="text-miam" d="M4225 2534 c-11 -3 -30 -7 -43 -10 -12 -2 -31 -13 -42 -24 -20 -20
-20 -37 -20 -770 l0 -751 25 -24 c23 -24 30 -25 140 -25 110 0 117 1 140 25
l25 24 0 738 c0 794 1 775 -52 801 -29 14 -140 24 -173 16z"/>
<path class="text-miam" d="M5279 2512 c-86 -2 -109 -6 -122 -20 -23 -27 -557 -1463 -557 -1499
0 -53 26 -63 168 -63 68 0 132 5 142 10 14 7 36 61 75 183 l55 172 311 -3
c171 -1 315 -4 319 -7 4 -3 11 -17 15 -32 12 -51 96 -278 111 -301 14 -21 20
-22 149 -22 122 0 137 2 155 20 11 11 20 29 20 39 0 11 -70 206 -155 433 -86
227 -211 559 -277 738 -67 179 -126 330 -132 337 -13 13 -124 19 -277 15z
m185 -631 c58 -156 106 -290 106 -298 0 -13 -30 -15 -205 -12 -118 3 -208 8
-213 14 -6 6 26 112 89 289 55 153 99 285 99 294 0 36 22 -16 124 -287z"/>
<path class="text-miam" d="M3370 2133 c-120 -12 -214 -66 -277 -161 l-39 -59 -29 54 c-54 105
-147 155 -296 161 -149 6 -265 -39 -325 -127 l-24 -36 0 48 c0 78 -16 87 -159
87 -97 0 -121 -3 -132 -16 -11 -13 -13 -117 -11 -568 3 -542 3 -551 24 -568
17 -15 40 -18 139 -18 83 0 120 4 126 13 4 6 10 179 13 382 l5 371 26 49 c78
153 334 151 389 -2 10 -28 15 -135 19 -409 5 -293 9 -374 20 -387 20 -25 252
-25 272 0 11 13 15 91 19 377 5 352 6 362 28 408 29 58 79 103 131 119 86 26
188 -19 233 -103 23 -42 23 -47 23 -414 1 -296 3 -375 14 -388 11 -13 35 -16
136 -16 111 0 124 2 141 21 18 20 19 44 22 406 2 322 0 395 -13 446 -42 168
-143 281 -280 315 -49 12 -148 20 -195 15z"/>
<path class="text-miam" d="M6812 2129 c-53 -9 -128 -43 -169 -76 -11 -10 -33 -36 -47 -57 l-26
-39 0 51 c0 43 -4 54 -26 71 -23 18 -41 21 -138 21 -74 0 -116 -4 -124 -12 -9
-9 -12 -148 -12 -563 0 -482 2 -553 16 -573 14 -21 22 -22 139 -22 117 0 125
1 139 22 14 19 16 73 16 388 0 359 0 367 23 410 32 64 91 103 166 108 100 7
170 -29 214 -112 21 -40 22 -51 24 -410 2 -330 4 -371 19 -387 15 -17 33 -19
133 -19 64 0 123 5 131 10 13 8 16 64 20 372 l5 363 27 50 c68 129 179 168
288 103 95 -58 94 -52 100 -490 5 -343 7 -379 23 -395 15 -15 35 -17 134 -16
173 2 157 -39 161 429 2 218 -1 407 -7 437 -16 86 -49 162 -93 212 -83 95
-172 130 -328 130 -166 0 -250 -39 -332 -155 l-42 -61 -19 38 c-25 49 -83 110
-127 133 -75 39 -190 54 -288 39z"/>
</g>
</svg>
